<svg version="1.2" baseProfile="tiny-ps" xmlns="http://www.w3.org/2000/svg" viewBox="0 0 640 512" width="30" height="24">
	<title>Layer</title>
	<style>
		tspan { white-space:pre }
		.shp0 { fill: #ffffff } 
	</style>
	<path id="Layer" fill-rule="evenodd" class="shp0" d="M640 464L640 496C640 504.84 632.84 512 624 512L16 512C7.16 512 0 504.84 0 496L0 464C0 455.16 7.16 448 16 448L40.68 448L280.47 117.75L227.06 44.2C221.86 37.05 223.45 27.04 230.6 21.85L256.48 3.05C263.63 -2.14 273.64 -0.55 278.83 6.6L320 63.3L361.16 6.61C366.36 -0.55 376.36 -2.13 383.51 3.06L409.41 21.85C416.56 27.04 418.14 37.05 412.95 44.2L359.54 117.75L599.32 448L624 448C632.84 448 640 455.16 640 464ZM203.64 448L436.36 448L320 288L203.64 448Z" />
</svg>